# xmcd CD database file
#
# Track frame offsets:
#	150
#	4062
#	11680
#	50130
#	69917
#	71010
#	83622
#	95522
#	119837
#	134760
#	144492
#	170590
#	182500
#	212470
#	223847
#
# Disc length: 3258 seconds
#
# Revision: 0
# Processed by: cddbd v1.5.1PL0 Copyright (c) Steve Scherf et al.
# Submitted via: CDex 1.60beta1
#
DISCID=df0cb80f
DTITLE=ZUNTATA - Chaos Heat
DYEAR=1998
DGENRE=Game
TTITLE0=Title Demo
TTITLE1=Select
TTITLE2=接触
TTITLE3=戦慄
TTITLE4=Round Clear
TTITLE5=疾走
TTITLE6=大魔
TTITLE7=気配
TTITLE8=融合
TTITLE9=ネームレジスト
TTITLE10=快楽
TTITLE11=断罪
TTITLE12=試練
TTITLE13=手にいれたもの、失われたもの
TTITLE14=接触(Round2Version)〜嘲笑
EXTD=YEAR: 1998
EXTT0=
EXTT1=
EXTT2=
EXTT3=
EXTT4=
EXTT5=
EXTT6=
EXTT7=
EXTT8=
EXTT9=
EXTT10=
EXTT11=
EXTT12=
EXTT13=
EXTT14=
PLAYORDER=
